<svg width="576" height="199" viewBox="0 0 576 199" fill="none" xmlns="http://www.w3.org/2000/svg">
<rect x="-0.249279" y="0.251331" width="12.0302" height="191.256" rx="6.01511" transform="matrix(0.00287088 0.999996 -0.999986 0.00532902 193.863 136.62)" fill="black" stroke="black" stroke-width="0.5"/>
<rect x="0.0468999" y="0.350867" width="12.0302" height="113.736" rx="6.01511" transform="matrix(0.793811 0.608165 -0.606211 0.795304 69.7331 53.046)" fill="black" stroke="black" stroke-width="0.5"/>
<rect x="-0.0997115" y="0.100532" width="15.7579" height="50.6941" rx="7.87896" transform="matrix(0.00287088 0.999996 -0.999986 0.00532902 257.857 119.484)" fill="white" stroke="black" stroke-width="0.2"/>
<rect x="-0.0997115" y="0.100532" width="15.76" height="50.69" rx="7.88" transform="matrix(0.00287088 0.999996 -0.999986 0.00532902 257.576 144.308)" fill="white" stroke="black" stroke-width="0.2"/>
<circle cx="249.77" cy="127.502" r="2.5" fill="black"/>
<circle cx="249.77" cy="151.502" r="2.5" fill="black"/>
<rect x="167.704" y="81.5054" width="59" height="115" rx="29.5" fill="white" stroke="black"/>
<rect x="0.2522" y="0.2484" width="12.0302" height="60.8781" rx="6.01511" transform="matrix(0.99998 -0.00636189 0.00881999 0.999961 511.906 55.0812)" fill="black" stroke="black" stroke-width="0.5"/>
<rect x="-0.249279" y="0.251331" width="12.0302" height="213.753" rx="6.01511" transform="matrix(0.00287088 0.999996 -0.999986 0.00532902 524.478 55.0881)" fill="black" stroke="black" stroke-width="0.5"/>
<rect x="277.403" y="0.5" width="40.1023" height="115" rx="9.5" fill="white" stroke="black"/>
<circle cx="297.433" cy="75.9971" r="4.5" fill="white" stroke="black"/>
<circle cx="297.433" cy="46.9971" r="4.5" fill="white" stroke="black"/>
<path d="M377.993 108.2C377.993 112.85 376.543 116.475 373.643 119.075C370.743 121.625 366.443 122.9 360.743 122.9H349.493V146H346.118V93.35H360.743C366.543 93.35 370.868 94.7 373.718 97.4C376.568 100.05 377.993 103.65 377.993 108.2ZM360.743 119.9C369.993 119.9 374.618 116 374.618 108.2C374.618 104.35 373.518 101.425 371.318 99.425C369.118 97.375 365.593 96.35 360.743 96.35H349.493V119.9H360.743ZM390.435 90.5V146H387.06V90.5H390.435ZM437.232 105.275V146H433.857V137.15C432.707 140.25 430.782 142.625 428.082 144.275C425.432 145.875 422.382 146.675 418.932 146.675C414.082 146.675 410.107 145.2 407.007 142.25C403.957 139.25 402.432 134.825 402.432 128.975V105.275H405.732V128.75C405.732 133.6 406.957 137.325 409.407 139.925C411.857 142.475 415.182 143.75 419.382 143.75C423.782 143.75 427.282 142.35 429.882 139.55C432.532 136.75 433.857 132.6 433.857 127.1V105.275H437.232ZM467.086 104.75C471.386 104.75 475.036 105.8 478.036 107.9C481.036 109.95 483.136 112.6 484.336 115.85V105.275H487.711V147.275C487.711 151.025 486.886 154.3 485.236 157.1C483.586 159.95 481.361 162.125 478.561 163.625C475.761 165.175 472.636 165.95 469.186 165.95C464.086 165.95 459.861 164.725 456.511 162.275C453.161 159.825 450.961 156.525 449.911 152.375H453.286C454.286 155.625 456.161 158.2 458.911 160.1C461.661 162.05 465.086 163.025 469.186 163.025C472.036 163.025 474.611 162.375 476.911 161.075C479.211 159.825 481.011 158 482.311 155.6C483.661 153.25 484.336 150.475 484.336 147.275V135.35C483.136 138.6 481.011 141.3 477.961 143.45C474.961 145.55 471.336 146.6 467.086 146.6C463.286 146.6 459.886 145.75 456.886 144.05C453.936 142.3 451.611 139.85 449.911 136.7C448.261 133.5 447.436 129.8 447.436 125.6C447.436 121.4 448.261 117.725 449.911 114.575C451.611 111.425 453.936 109 456.886 107.3C459.886 105.6 463.286 104.75 467.086 104.75ZM484.336 125.6C484.336 122.05 483.586 118.925 482.086 116.225C480.636 113.475 478.636 111.375 476.086 109.925C473.536 108.425 470.686 107.675 467.536 107.675C464.236 107.675 461.336 108.4 458.836 109.85C456.336 111.25 454.386 113.3 452.986 116C451.586 118.7 450.886 121.9 450.886 125.6C450.886 129.3 451.586 132.5 452.986 135.2C454.386 137.9 456.336 139.975 458.836 141.425C461.386 142.875 464.286 143.6 467.536 143.6C470.686 143.6 473.536 142.875 476.086 141.425C478.686 139.925 480.711 137.825 482.161 135.125C483.611 132.375 484.336 129.2 484.336 125.6Z" fill="black"/>
</svg>
