<svg width="571" height="215" viewBox="0 0 571 215" fill="none" xmlns="http://www.w3.org/2000/svg">
<rect x="-0.249279" y="0.251331" width="12.0302" height="191.256" rx="6.01511" transform="matrix(0.00287088 0.999996 -0.999986 0.00532902 194.85 152.62)" fill="black" stroke="black" stroke-width="0.5"/>
<rect x="0.0468999" y="0.350867" width="12.0302" height="113.736" rx="6.01511" transform="matrix(0.793811 0.608165 -0.606211 0.795304 70.7204 69.0457)" fill="black" stroke="black" stroke-width="0.5"/>
<rect x="-0.302593" y="0.183697" width="12.0302" height="72.3269" rx="6.01511" transform="matrix(-0.238695 0.971095 -0.971678 -0.236307 79.7939 72.5156)" fill="black" stroke="black" stroke-width="0.5"/>
<rect x="-0.498557" y="0.502662" width="14.9579" height="49.8941" rx="7.47896" transform="matrix(0.00287088 0.999996 -0.999986 0.00532902 258.849 136.282)" fill="white" stroke="black"/>
<rect x="-0.498557" y="0.502662" width="14.96" height="49.89" rx="7.48" transform="matrix(0.00287088 0.999996 -0.999986 0.00532902 258.569 161.107)" fill="white" stroke="black"/>
<circle cx="250.757" cy="143.502" r="2.5" fill="black"/>
<circle cx="250.757" cy="167.502" r="2.5" fill="black"/>
<rect x="168.692" y="97.5054" width="59" height="115" rx="29.5" fill="white" stroke="black"/>
<rect x="0.2522" y="0.2484" width="12.0302" height="68.0903" rx="6.01511" transform="matrix(0.99998 -0.00636189 0.00881999 0.999961 506.894 55.0812)" fill="black" stroke="black" stroke-width="0.5"/>
<rect x="-0.249279" y="0.251331" width="12.0302" height="213.753" rx="6.01511" transform="matrix(0.00287088 0.999996 -0.999986 0.00532902 519.466 55.0881)" fill="black" stroke="black" stroke-width="0.5"/>
<rect x="272.391" y="0.5" width="40.1023" height="115" rx="9.5" fill="white" stroke="black"/>
<circle cx="293.988" cy="78" r="6.5" fill="white" stroke="black"/>
<circle cx="293.988" cy="49" r="6.5" fill="white" stroke="black"/>
<path d="M372.981 108.2C372.981 112.85 371.531 116.475 368.631 119.075C365.731 121.625 361.431 122.9 355.731 122.9H344.481V146H341.106V93.35H355.731C361.531 93.35 365.856 94.7 368.706 97.4C371.556 100.05 372.981 103.65 372.981 108.2ZM355.731 119.9C364.981 119.9 369.606 116 369.606 108.2C369.606 104.35 368.506 101.425 366.306 99.425C364.106 97.375 360.581 96.35 355.731 96.35H344.481V119.9H355.731ZM385.423 90.5V146H382.048V90.5H385.423ZM432.221 105.275V146H428.846V137.15C427.696 140.25 425.771 142.625 423.071 144.275C420.421 145.875 417.371 146.675 413.921 146.675C409.071 146.675 405.096 145.2 401.996 142.25C398.946 139.25 397.421 134.825 397.421 128.975V105.275H400.721V128.75C400.721 133.6 401.946 137.325 404.396 139.925C406.846 142.475 410.171 143.75 414.371 143.75C418.771 143.75 422.271 142.35 424.871 139.55C427.521 136.75 428.846 132.6 428.846 127.1V105.275H432.221ZM462.074 104.75C466.374 104.75 470.024 105.8 473.024 107.9C476.024 109.95 478.124 112.6 479.324 115.85V105.275H482.699V147.275C482.699 151.025 481.874 154.3 480.224 157.1C478.574 159.95 476.349 162.125 473.549 163.625C470.749 165.175 467.624 165.95 464.174 165.95C459.074 165.95 454.849 164.725 451.499 162.275C448.149 159.825 445.949 156.525 444.899 152.375H448.274C449.274 155.625 451.149 158.2 453.899 160.1C456.649 162.05 460.074 163.025 464.174 163.025C467.024 163.025 469.599 162.375 471.899 161.075C474.199 159.825 475.999 158 477.299 155.6C478.649 153.25 479.324 150.475 479.324 147.275V135.35C478.124 138.6 475.999 141.3 472.949 143.45C469.949 145.55 466.324 146.6 462.074 146.6C458.274 146.6 454.874 145.75 451.874 144.05C448.924 142.3 446.599 139.85 444.899 136.7C443.249 133.5 442.424 129.8 442.424 125.6C442.424 121.4 443.249 117.725 444.899 114.575C446.599 111.425 448.924 109 451.874 107.3C454.874 105.6 458.274 104.75 462.074 104.75ZM479.324 125.6C479.324 122.05 478.574 118.925 477.074 116.225C475.624 113.475 473.624 111.375 471.074 109.925C468.524 108.425 465.674 107.675 462.524 107.675C459.224 107.675 456.324 108.4 453.824 109.85C451.324 111.25 449.374 113.3 447.974 116C446.574 118.7 445.874 121.9 445.874 125.6C445.874 129.3 446.574 132.5 447.974 135.2C449.374 137.9 451.324 139.975 453.824 141.425C456.374 142.875 459.274 143.6 462.524 143.6C465.674 143.6 468.524 142.875 471.074 141.425C473.674 139.925 475.699 137.825 477.149 135.125C478.599 132.375 479.324 129.2 479.324 125.6Z" fill="black"/>
</svg>
